<?xml version="1.0" encoding="utf-8"?>
<!-- Generator: Adobe Illustrator 26.3.1, SVG Export Plug-In . SVG Version: 6.00 Build 0)  -->
<svg version="1.1" id="Layer_1" xmlns="http://www.w3.org/2000/svg" xmlns:xlink="http://www.w3.org/1999/xlink" x="0px" y="0px"
	 viewBox="0 0 270 34" style="enable-background:new 0 0 270 34;" xml:space="preserve">
<style type="text/css">
	.st0{fill:#FFFFFF;}
</style>
<g>
	<path class="st0" d="M20.3,28.9c-0.9,0.8-2,1.3-3.1,1.3c-0.6,0.1-1.2,0.1-1.8,0c-0.4,0-0.8,0-1.2-0.1c-1.7-0.4-3.2-1.5-4.3-2.8
		c-1.2-1.3-2-2.9-2.6-4.6c-0.3-1-0.6-2-0.7-3c-0.1-0.1-0.2-0.2-0.2-0.3c-0.3-1.7-0.6-5,1.4-5.9c0.9-0.4,1.7-0.2,2.3,0.5
		c0.5,0.6,0.6,1.3,0.5,2.1v0.1c0,1.5,0.1,3,0.4,4.4c0.4,1.6,1.2,3,2.2,4.2c0.6,0.4,1.3,0.7,2,0.6c1-0.1,1.6-1.1,1.8-2
		c0.3-1.4,0.3-2.8,0.2-4.1c0-1.5-0.1-3-0.3-4.5c0-0.3-0.1-0.7-0.1-1c-0.8,0-1.7,0-2.6-0.1c-0.7,0-2.2,0.1-2.4-0.9
		c-0.1-0.6,0-1.2-0.1-1.7c0-0.4-0.1-1,0-1.5C12,9.3,12.2,9.1,12.5,9c0-0.2,0-0.5,0.1-0.7c0-0.1,0.1-0.1,0.2-0.2
		c1.7,0.5,3.5,0.6,5.3,0.4h0.1l0,0c0.8-0.1,1.5-0.2,2.3-0.3c0,0,0,0,0,0.1c0,0,0,0.1,0.1,0.1c0-0.2,0.3-0.3,0.4-0.2
		c0.2,2.8,1,14.9,0.4,17.2c-0.5,2.2-1.6,3-1.8,3.2c0.4-0.3,0.9-0.6,1.3-1c1.2-1.4,1.2-3.4,1.2-6c0-3.4-0.4-7.8-0.6-12.7
		c0,0,0.3-0.2,0.3-0.1c0.2,2.6,0.5,5.1,0.6,7.6c0.2,2.4,0.6,5,0.2,7.4C22.4,25.6,21.7,27.7,20.3,28.9z M13.9,12.4
		c-0.5-0.2-1-0.4-1.2-0.9c0,0.3,0,0.6,0,0.9c0,0.4,0.8,0.3,1,0.3c1,0,2,0,3,0l0,0C15.8,12.7,14.8,12.7,13.9,12.4z M13.7,27
		c0.8,0.6,1.8,1,2.8,0.4c0.6-0.3,1-0.8,1.4-1.2c-0.8,0.7-1.8,1.2-3,1.1C14.6,27.3,14.1,27.2,13.7,27z M17.7,3.8
		c0.6-0.1,1.3,0,1.8,0.3c0.2-0.2,0.6-0.3,0.9,0c0.8,1.4-0.1,3.1-1.6,3.6C18,8,15.7,8,15.7,6.7c-0.5-0.3-0.8-0.8-0.3-1.4
		C15.8,4.5,16.9,3.9,17.7,3.8z M16.5,6.7c0,0.1,0,0.2-0.1,0.3c0.8,0.5,2.1,0.3,2.8-0.3C18.4,6.9,17.3,6.9,16.5,6.7z"/>
	<path class="st0" d="M47.8,28.4c-0.1,0.1-0.2,0.2-0.3,0.2c-0.4,0.4-1.1,1-1.8,1.4c-2.8,1.8-6.5,0.3-8.5-2c-0.7-0.8-1.2-1.7-1.7-2.6
		c-0.5,0-1-0.2-1.3-0.8c-2-5-2.2-10.6-1-15.7c0.4-2,1.7-4.4,4.1-4.1c1,0.1,1.8,0.8,2.2,1.7c0.4,1.2-0.2,2.7-0.3,3.9
		c-0.1,1.5-0.1,3,0,4.5c0.2,3.1,0.9,6.1,2,9c0.6,0.4,1.2,0.8,1.9,0.8c0.8-0.2,1.4-0.5,2-1c0.9-1.4,0.8-3.9,0.9-5.2
		c0.2-3.6,0.2-7.1,0.2-10.7c0-1.2,1.4-2,2.4-1.4c0-0.1,0-0.2,0-0.4c0-0.4,0.4-0.8,0.8-0.8c1.8,0.2,2,2.1,2.1,3.6
		c0.1,1,0.2,1.9,0.2,2.9c0,0.5,0,1.1,0,1.6c0.2,3.3,0,6.7-0.9,9.9C50.2,25,49.3,27,47.8,28.4z M38.9,8.9c-0.1,0.4-0.2,0.7-0.3,1
		c-0.3,2.7-0.3,5.5,0.2,8.1c0.1,0.5,0.2,1,0.3,1.5h0.1c-0.6-3.5-0.7-7.1-0.1-10.6C39.1,9,39,9,38.9,8.9z"/>
	<path class="st0" d="M64.9,30.9c-1,0.2-2.1-0.5-2-1.6c0-0.4,0-0.8,0-1.2C63,26.5,63,25,63,23.4c-0.2-1.9-0.4-3.8-0.6-5.7
		c-0.4-3.8-0.8-7.6-1-11.3c-0.1-1.3,1-2,2.3-1.8c0.4,0,0.8,0.2,1.1,0.4c0.4,0.1,0.7,0.2,1,0.4c0.3,1.4,0.5,2.9,0.7,4.3l0.2,1.2
		c0-1,0-2.4-0.1-3.1c0-0.9-0.2-1.8-0.6-2.6c0-0.1,0.1-0.2,0.2-0.1c1.1,1.4,1.1,3.3,1.3,5c0.2,2,0.4,4.1,0.5,6.1
		c0.2,2.1,0.3,4.2,0.4,6.4c0,0.7,0.1,1.4,0.1,2c0,0,0,0,0.1,0v0.1c0,0.1,0,0.2,0,0.2c1.9-0.5,3.9-0.7,5.8-0.8c0.8,0,1.6,0,2.4,0
		c0.6,0,1.3,0.1,1.8,0.5c0.4,0.3,0.9,0.8,0.9,1.4c0,0.2,0,0.4-0.1,0.6c0.2,0.2,0.3,0.4,0.5,0.6c0.6,1-0.2,2.4-1.4,2.3
		C74,29.3,69.4,29.7,64.9,30.9z M62.5,10.1c0.2,2.9,0.4,5.7,0.6,8.6c0-0.7,0-1.5,0-2.2c0-2-0.1-3.9-0.1-5.9c0-1-0.2-2.4,0.1-3.4
		c0-0.4,0.1-0.9,0.1-1.4c0-0.1,0.1-0.3,0.2-0.4c-0.2,0-0.4,0-0.6,0.1c-0.9,0.4-0.5,1.6-0.5,2.4C62.4,8.6,62.4,9.3,62.5,10.1z
		 M71.3,31.2c-1.1,0-2.2,0.1-3.2,0.2s-2.2,0.4-3.2,0.3c0,0,0,0,0-0.1c0.9-0.4,2.1-0.5,3.2-0.7c1-0.1,2-0.2,3-0.3
		c2.3-0.2,4.6-0.3,6.8-0.2c0.5,0,0.5,0.9,0,0.9C75.6,31.1,73.5,31,71.3,31.2z"/>
	<path class="st0" d="M88.6,6.2c0.3-0.4,0.6-0.7,1-1C89.7,5.1,89.8,5,89.8,5c1-0.7,2.3-1.2,3.5-0.9C94.4,4.4,95.2,5,95.6,6
		c0.2,0.4-0.1,0.8-0.4,1.1c-0.6,0.4-1.4,0.8-2.1,1c-0.5,0.6-1.4,0.8-2.1,0.8c-0.6,0-1.2-0.1-1.8-0.3c-0.4-0.1-0.9-0.4-1-0.8
		C88,7.2,88.3,6.6,88.6,6.2z M92.2,8.3c-0.5,0.1-1,0.2-1.9,0c-1.2-0.2-1.6-1.2-1.2-2.1c-0.2,0.2-0.4,0.5-0.5,0.8
		c-0.2,0.4-0.2,0.6,0.1,0.9c0.2,0.2,0.5,0.4,0.8,0.4c0.4,0.2,0.9,0.2,1.4,0.3C92,8.7,92.2,8.3,92.2,8.3z M94.1,29.3
		c0,0.3,0,0.6-0.4,0.8c-1,0.5-2.2,0.2-2.9-0.5c0,0,0-0.1-0.1-0.1c-0.2-0.1-0.4-0.2-0.6-0.4c-0.8-0.8-0.9-2-1-3.1
		c-0.4-3-0.6-5.9-0.5-8.9c0-1.4,0-2.9,0.1-4.4c0.1-0.8,0.4-1.5,0.8-2c0.1-0.2,0.2-0.3,0.3-0.4c0.8-0.6,2.9-2,3.5-0.4
		c0.3,0,0.6,0.1,0.6,0.5c0,1.5-0.1,2.9-0.1,4.4c0,1.4,0.1,2.9,0.1,4.4c0,0.3,0,0.6,0.1,1c0.1,0,0.2,1.4,0.3,1.4
		c-0.1-2.8-0.1-7,0-9.9c0-0.1,0.3-0.1,0.3-0.1c-0.2,5.7,0.2,11.4,0.9,17.1c0,0.4-0.6,0.4-0.7,0C94.8,29,94.4,29.2,94.1,29.3z
		 M89.9,18.1c0,0.2,0,0.3,0,0.4c0,0,0,0,0,0.1c0.1,1,0.2,1.9,0.3,2.9h0.1c0-1.8,0-3.6,0-5.4c0-1.4,0.1-2.8,0.5-4.1l0,0
		c-0.1,0.1-0.3,0.3-0.3,0.4C89.9,14.1,90,16.3,89.9,18.1z"/>
	<path class="st0" d="M125.6,30.6c-0.9-0.2-1.6-1-1.6-2c-0.1-3.5-0.5-6.7-1.4-10.2c-0.4-1.7-0.8-3.4-1.1-5c-1,2.8-2,6.3-2.5,8.5
		s-1.1,4.7-1.4,6.4c0,0.2-0.2,0.1-0.2,0c-0.1,0.4-0.2,0.8-0.3,1.2c-0.2,0.6-0.4,1-1.1,1.2c-0.2,0-0.4,0-0.5,0c-0.2,0-0.4,0-0.6-0.2
		c-0.1,0.1-0.3,0-0.4-0.1c-0.4-0.6-0.5-1.2-0.7-1.8l-1.7-6.1c-0.4-1.3-0.7-2.7-1-4c-0.1-0.3-0.2-0.6-0.3-1c0.2,3.4,0.3,6.9,0.4,10.2
		c0,1.2,0.2,2.6-1.1,3.2c-0.2,0.1-0.5,0.1-0.7-0.1c0,0-0.1-0.1-0.1-0.2c-0.5,0.2-1,0.1-1.4-0.3c-0.7-0.7-0.8-1.9-0.9-2.9
		c-0.3-2.3-0.5-4.6-0.5-6.9c-0.1-2.4-0.1-4.8-0.1-7.1s-0.2-4.7,0.2-7c0-0.2,0.4-0.2,0.5,0c0.2,1.6,0.3,3.4,0.3,5.2
		c0.1,0,0.1,0.9,0.2,0.9v-0.9c0-1,0-1.9,0-2.8c0-0.8-0.1-1.7,0.3-2.4c0-0.4,0.2-0.8,0.7-1.1c0.6-0.4,1.4-0.5,2-0.3
		c0.8,0.2,1.4,0.7,1.6,1.4c0.2,0.3,0.4,0.7,0.4,1.1c0.1,1,0.3,2,0.4,3c0.7,4.1,1.6,8.8,2.5,12.8c0.5-2.2,1-4.5,1.5-6.7
		c0.8-3.4,1.6-6.9,2.1-10.4c0.1-0.4,0.5-0.8,1-0.9c0.7-0.2,1.3-0.1,1.8,0.2c0.6-0.4,1.4-0.4,1.9,0.1c1.2,1.2,1.9,2.8,2.3,4.5
		c0.4,1.8,0.8,3.6,1.1,5.4c0.1,0.7,0.2,1.4,0.3,2.1c0.2,0.6,0.3,1.2,0.4,1.8c0.2,1.3,0.5,2.6,0.8,3.9c0.2,1.2,0.5,2.3,0.6,3.5
		c0.1,1.1,0,2.3-0.6,3.3C128.1,31,126.6,31.6,125.6,30.6z M110.9,8.1c0,0,0,0.1,0,0.2c0.6,2.4,1.2,4.8,1.7,7.3c0,0,0.1,0.1,0.1,0.2
		c0.2,0.4,0.2,0.7,0.4,0.9c-0.4-2-0.9-5-1.3-7c-0.1-0.6-0.2-1.2-0.3-1.8C111.3,8,111.1,8.1,110.9,8.1z M118.6,21.9L118.6,21.9
		L118.6,21.9c0.8-3,1.7-6.1,2.7-9.1c-0.1-0.2-0.1-0.5-0.2-0.8c-0.9,2.6-1.6,5.3-2.2,8C118.8,20.7,118.7,21.3,118.6,21.9z"/>
	<path class="st0" d="M149.1,21H146c-0.6,2.4-1,4.8-1.2,7.2c0,0.5-0.7,0.5-0.6,0c0.2-2.4,0.6-4.8,1.3-7.2c-0.1,0-0.2,0-0.4,0
		c-0.5,2-1.2,6-1.2,6l-0.2,1.8c-0.3,3.6-5.3,3.1-4.8-0.7c0.3-2.4,0.7-4.7,1.3-7c-0.4,0-0.8,0.1-1.1,0.1c0-0.1,0.1-0.2,0-0.4
		c-2.6-0.6-2.6-5,2.2-5.7c0.6-2.6,1.2-5.2,2.2-7.7c0.7-1.6,1.5-4,3.6-4.1c0.7,0,1.5,0.4,1.8,1.1c1.2,0.1,2,0.9,2.1,2.2
		c0.1,1.6,0.3,3.2,0.4,4.8c0,0,0,0,0.1,0c0-1.4,0.1-2.8,0.3-4.1c0-0.4,0.3,5.6,0.6,8c3,0.4,3.5,4,1.3,5.4c0.5,2.4,1.2,5.6,1.5,8
		c0.4,3.6-2.5,3.7-3.4,0.8C151,29.3,149.4,22.4,149.1,21z M148.1,15.7c-0.2-1-0.4-3.7-0.8-5.6c-0.6,2.2-1.1,3.8-1.5,5.7
		C146.4,15.7,147.6,15.7,148.1,15.7z"/>
	<path class="st0" d="M184.3,18.5c-1,1.6-2.2,3.1-3.6,4.4c-0.7,0.8-1.5,1.5-2.4,2.1c-1.4,1-3,1.8-4.7,2.3c-0.2,0-0.3,0.1-0.4,0.1
		c-0.8,0.2-1.8,0.4-2.7,0.4c0.4,0.4,2.8-0.1,3.1-0.2c0.9-0.2,1.8-0.6,2.7-1c1.6-0.8,6.8-4.2,9.4-10c0,0.1,0.1,0.2,0.2,0.2
		c-0.2,0.6-0.3,1.3-0.5,1.9c0,0.1-0.1,0.2-0.1,0.4c-0.1,0.2-0.2,0.3-0.2,0.5c-1.3,2.1-2.9,4-4.8,5.5c-1.7,1.3-3.6,2.4-5.8,2.9
		c-1,0.2-2.1,0.4-3.2,0.4c-0.3,0-0.9-0.2-1-0.5c-0.8,0-1.6-0.2-2.3-0.6c-0.9-0.5-1.6-1.3-2.1-2.3c-1-1.1-1.7-2.5-1.9-4
		c-0.5-3.2,1-6.3,3.1-8.6c1.8-2.1,4.2-3.9,6.9-4.7c0-0.2,0.2-0.4,0.5-0.5c2.9-0.8,6-1.2,9-0.6c1,0.2,2.8,0.6,2.4,2.1
		c-0.2,0.4-0.6,0.6-1,0.6c0.1,0.2-0.1,0.5-0.4,0.5c-0.9,0-1.8,0-2.7,0c-0.8,0-1.6,0-2.4,0.2c-1.6,0.2-3.2,0.8-4.6,1.5
		c-2.5,1.4-4.5,3.5-5.7,6.1c-0.6,1.3-1.1,2.8-1.1,4.2c0,1.2,0.3,2.5,1.3,3.1c0.2,0,0.4,0.1,0.5,0.1c1,0.2,1.9,0.1,2.9-0.2
		c0.3-0.1,0.6-0.2,0.8-0.3c1.3-0.6,2.5-1.4,3.5-2.4c1.2-1.1,2.1-2.4,3-3.7c0.4-0.6,0.8-1.3,1.1-1.9c-0.1,0-0.1,0-0.2,0
		c-0.9,0.2-1.8,0.4-2.6,0.6c-1.8,0.4-3.6,1-5.4,1.4c-1.7,0.4-2.8-2-1.2-2.8c0.1,0,0.2-0.1,0.2-0.1c-0.1-0.6,0.2-1.3,1-1.5
		c0,0,0.1,0,0.2-0.1c1.8-0.5,3.6-1,5.5-1.4s3.7-1,5.6-1.2c1-0.1,2,0.4,2.2,1.4c0.2,0.7,0.1,1.4-0.2,2.1
		C185.7,16,185.1,17.3,184.3,18.5z"/>
	<path class="st0" d="M195.4,6.2c0.3-0.4,0.6-0.7,1-1c0.1-0.1,0.2-0.2,0.2-0.2c1-0.7,2.3-1.2,3.5-0.9c1.1,0.3,1.9,0.9,2.3,1.9
		c0.2,0.4-0.1,0.8-0.4,1.1c-0.6,0.4-1.4,0.8-2.1,1c-0.5,0.6-1.4,0.8-2.1,0.8c-0.6,0-1.2-0.1-1.8-0.3c-0.4-0.1-0.9-0.4-1-0.8
		C194.8,7.2,195.1,6.6,195.4,6.2z M199,8.3c-0.5,0.1-1,0.2-1.9,0c-1.2-0.2-1.6-1.2-1.2-2.1c-0.2,0.2-0.4,0.5-0.5,0.8
		c-0.2,0.4-0.2,0.6,0.1,0.9c0.2,0.2,0.5,0.4,0.8,0.4c0.4,0.2,0.9,0.2,1.4,0.3C198.8,8.7,199,8.3,199,8.3z M200.9,29.3
		c0,0.3,0,0.6-0.4,0.8c-1,0.5-2.2,0.2-2.9-0.5c0,0,0-0.1-0.1-0.1c-0.2-0.1-0.4-0.2-0.6-0.4c-0.8-0.8-0.9-2-1-3.1
		c-0.4-3-0.6-5.9-0.5-8.9c0-1.4,0-2.9,0.1-4.4c0.1-0.8,0.4-1.5,0.8-2c0.1-0.2,0.2-0.3,0.3-0.4c0.8-0.6,2.9-2,3.5-0.4
		c0.3,0,0.6,0.1,0.6,0.5c0,1.5-0.1,2.9-0.1,4.4c0,1.4,0.1,2.9,0.1,4.4c0,0.3,0,0.6,0.1,1c0.1,0,0.2,1.4,0.3,1.4
		c-0.1-2.8-0.1-7,0-9.9c0-0.1,0.3-0.1,0.3-0.1c-0.2,5.7,0.2,11.4,0.9,17.1c0,0.4-0.6,0.4-0.7,0C201.6,29,201.2,29.2,200.9,29.3z
		 M196.7,18.1c0,0.2,0,0.3,0,0.4c0,0,0,0,0,0.1c0.1,1,0.2,1.9,0.3,2.9h0.1c0-1.8,0-3.6,0-5.4c0-1.4,0.1-2.8,0.5-4.1l0,0
		c-0.1,0.1-0.3,0.3-0.3,0.4C196.7,14.1,196.8,16.3,196.7,18.1z"/>
	<path class="st0" d="M212.8,17.6c-0.1-2.8-0.2-5.7-0.2-8.6c0-0.7,0-1.4,0.3-2.1c0,1.3,0,2.6,0,3.8c0,2.8,0.1,5.6,0.2,8.4
		c0.1,2.8,0.2,6.2,0.4,9c0,0-0.2,0.1-0.3-1.6C213,23.7,213,20.5,212.8,17.6z M227.7,30.9c-1.1-0.5-1.3-1.7-1.5-2.8
		c-0.1-0.5-0.2-0.9-0.2-1.4l-7-12.4c-0.2-0.3-0.4-0.6-0.6-0.9c0,2.7,0,5.4,0,8.2c0.1,1.6,0.1,3.2,0.2,4.8c0,1.2,0.5,3.6-1.2,3.8
		c-0.5,0.8-1.4,1.1-2.3,0.8c-0.5-0.1-0.8-0.4-1.1-0.8c-0.2-3.4-0.3-6.7-0.4-10.1c-0.1-2.7-0.2-5.5-0.2-8.2c0-1.8-0.1-3.5,0-5.2
		c0.2-0.2,0.5-0.3,0.8-0.4c0-0.3,0.1-0.6,0.3-0.9c1.2-1.6,3.5,0.7,4.3,1.7c1.4,1.8,2.5,3.7,3.6,5.7c0.9,1.6,1.8,3.2,2.6,4.8
		c0.1,0.2,0.1,0.3,0.1,0.4c0.2,0.4,0.4,0.8,0.6,1.2c-0.2-2-0.6-4.1-1-6.2c-0.3-1.4-0.5-2.9-0.9-4.3c-0.2-0.8-0.6-1.5-0.1-2.3
		c0.2-0.3,0.4-0.6,0.7-0.7c0,0,0,0,0-0.1c0.5-0.9,1.7-0.8,2.4-0.3c0.1,0,0.2,0.1,0.3,0.2c0.2,0.8,0.4,1.5,0.6,2.3
		c0.6,2.3,1,4.8,1.4,7.2c0.8,4.9,1.2,9.8,1.6,14.8c-0.4,0.6-1.1,1.1-1.8,1.1C228.3,31,227.9,31,227.7,30.9z M217.6,24.6L217.6,24.6
		l-0.1,2.4c0,0.6,0.4,1.6,0.2,2.6c0.2-0.4,0.4-1,0.3-1.4c0-0.8-0.1-1.6-0.2-2.4c0-0.5,0-0.9-0.1-1.4
		C217.7,24.6,217.6,24.6,217.6,24.6z M230.6,29.5c-0.5-7.6-1.4-15.2-3-22.7c0-0.1,0-0.3,0.1-0.4c0.2-0.2,0.7-0.2,0.8,0.2
		c1.4,7,2.3,14,2.3,21.1c0,0.3,0.1,1.2,0,1.7C230.7,29.4,230.6,29.4,230.6,29.5z"/>
	<path class="st0" d="M262.9,26.3c-3,0.6-5.9,1.3-8.8,2.3c-1.4,0.5-2.7,1-4,1.5l0,0c-0.1,0-0.2,0.1-0.3,0.1
		c-0.4,0.2-0.9,0.4-1.3,0.6l0,0c-0.5,0.3-2.8,1-2.7,1c0,0-0.2,0-0.4,0c-0.6,0.1-1.4,0.1-1.7-0.6c-0.1-0.2-0.1-0.4,0-0.6
		c-1-0.4-1.7-1.6-1.3-2.6c-0.2-1.4-0.3-2.8-0.4-4.2c-0.2-1.6-0.3-3.2-0.5-4.8l-0.5-4.6c-0.5-0.5-0.7-1.3-0.6-2
		c0.1-0.8,0.4-1.4,1-1.9c0-0.1,0.1-0.2,0.2-0.3c0.8-0.4,1.7-0.7,2.6-1c2.6-0.9,5.4-1.5,8.1-2.1c2.1-0.5,4.2-1,6.3-1.6
		c0.3,0,0.6,0.1,0.8,0.2c0.2,0.1,0.4,0.2,0.6,0.2c0.2,0.2,0.4,0.4,0.6,0.5c0.3,0.8,0.4,1.7,0.2,2.5c-0.6,0.2-1.3,0.4-2,0.6
		c-0.9,0.3-1.8,0.6-2.7,0.8c-0.1,0-0.2,0.1-0.2,0.1c-2,0.6-6,1.8-6.4,2c-1.3,0.4-2.6,0.9-3.8,1.4l-0.1,0.1c0,0.4,0.3,1.8,0.3,2
		c2.2-1,4.4-1.9,6.7-2.8c1.3-0.3,2.6-0.7,3.9-1c0.2,0,0.4-0.1,0.5-0.1c0.5-0.1,0.9-0.1,1.4-0.2c1,0,2,0,2.5,1
		c0.1,0.1,0.1,0.2,0.2,0.3c0.1,0.2,0.2,0.3,0.2,0.5c0,0,0,0,0.1,0c0.4,0.2,0.6,0.6,0.7,1c0.2,0.8-0.3,1.6-1,2
		c-0.8,0.4-1.7,0.4-2.6,0.6c-1,0.2-2,0.4-2.9,0.6c-1.9,0.5-3.8,1.1-5.7,1.9c-1.2,0.5-2.2,1-3.4,1.6c0.1,0.9,0.2,1.7,0.2,2.6
		c0,0,0,0.1,0,0.2c0,0,0.1,0,0.1-0.1c0.9-0.4,1.8-0.8,2.6-1.1c1.1-0.4,2.2-0.9,3.4-1.3c0.6-0.2,1.2-0.5,1.8-0.7c1-0.4,1.9-0.7,2.9-1
		c0.5-0.2,1-0.3,1.6-0.5c0.4-0.1,0.8-0.3,1.3-0.4c3.1-0.6,3.8,2.9,4,5.2c0,0.7-0.3,1.3-0.8,1.6C263.3,26.1,263.1,26.3,262.9,26.3z
		 M249.3,6.6c0.3-0.1,0.6-0.2,0.9-0.2c1.6-0.3,3.3-0.6,5-0.8c0.4,0,0.7,0,1.1,0c-1.6,0.4-3.2,0.8-4.7,1.2c-2.7,0.6-5.4,1.2-8.1,2.1
		c-0.9,0.3-1.8,0.6-2.7,1c-0.1,0-0.1-0.2,0-0.2C243.5,8.3,246.5,7.4,249.3,6.6z M246.4,31.2h0.1c0.3-0.2,0.6-0.3,0.9-0.5
		c0.6-0.3,1.2-0.6,1.8-1v-0.1c-0.7,0.3-1.4,0.6-2.2,0.8c-0.8,0.3-1.5,0.6-2.3,0.8C245.4,31.4,246.3,31.3,246.4,31.2z M253.6,17.5
		c-1.2,0.4-2.5,0.8-3.7,1.2c-0.8,0.2-1.6,0.5-2.3,0.7c-0.1,0.4-0.3,0.8-0.6,1.1c2-1,4-1.8,6-2.6c0.2-0.1,0.4-0.2,0.7-0.3L253.6,17.5
		z"/>
</g>
</svg>
