<?xml version="1.0" encoding="utf-8"?>
<!-- Generator: Adobe Illustrator 26.3.1, SVG Export Plug-In . SVG Version: 6.00 Build 0)  -->
<svg version="1.1" id="Layer_1" xmlns="http://www.w3.org/2000/svg" xmlns:xlink="http://www.w3.org/1999/xlink" x="0px" y="0px"
	 viewBox="0 0 271.1 35" style="enable-background:new 0 0 271.1 35;" xml:space="preserve">
<style type="text/css">
	.st0{fill:#FFFFFF;}
	.st1{fill:none;stroke:#FFFFFF;stroke-miterlimit:10;}
</style>
<g>
	<path class="st0" d="M1.1,26.7c0.8,0.3,1.5,0.6,2.2,0.8c0.7,0.2,1.2,0.3,1.7,0.3c1.5,0,2.5-0.5,3.2-1.5c0.6-1,0.9-2.6,0.9-4.9V2.1
		h7.5v21.1c0,3.6-0.9,6.3-2.8,8.2s-4.5,2.8-8,2.8c-0.7,0-1.3,0-2-0.1c-0.7-0.1-1.3-0.2-2-0.4L1.1,26.7z"/>
	<path class="st0" d="M30.9,2.1v17.1c0,2.8,0.5,4.8,1.5,6.2s2.5,2.1,4.6,2.1c2,0,3.5-0.6,4.5-1.9c1-1.3,1.6-3.1,1.6-5.6V2.1h6.6
		v17.9c0,4.5-1.2,8-3.5,10.5c-2.3,2.5-5.5,3.8-9.6,3.8c-4.1,0-7.4-1.2-9.7-3.7s-3.4-6-3.4-10.5V2.1H30.9z"/>
	<path class="st0" d="M57.2,33.2V2.1h7.4v24.5h12.1v6.7H57.2z"/>
	<path class="st1" d="M81.1,33.2V2.1h7.4v31.2H81.1z"/>
	<path class="st1" d="M93.9,33.2L100.4,1h0.5l11.8,20.3L123.8,1h0.6l6.5,32.2h-7.1L121.1,19l-8.4,15.4h-0.5l-9-15.6l-2.7,14.4H93.9z
		"/>
	<path class="st1" d="M134.2,33.2L151,1.1h0.5l15.5,32.1h-7.8l-2-4.5h-12.6l-2,4.5H134.2z M146.8,23.3h8.2l-4-9.8L146.8,23.3z"/>
	<path class="st1" d="M193.5,15.9v15.1c-2.1,1-4.1,1.8-6.1,2.4c-2,0.5-3.9,0.8-5.8,0.8c-4.7,0-8.7-1.6-11.8-4.7
		c-3.1-3.1-4.7-7.1-4.7-11.8c0-4.8,1.6-8.8,4.8-11.9c3.2-3.2,7.2-4.7,12-4.7c1.8,0,3.6,0.3,5.2,0.8c1.7,0.5,3.3,1.3,4.8,2.3
		l-0.8,7.8c-1.4-1.5-2.9-2.5-4.3-3.2c-1.4-0.7-2.9-1-4.5-1c-2.8,0-5.1,0.9-6.9,2.8c-1.8,1.9-2.8,4.2-2.8,7c0,3,0.9,5.4,2.7,7.2
		c1.8,1.9,4,2.8,6.8,2.8c0.6,0,1.3-0.1,2-0.2c0.7-0.1,1.3-0.3,2.1-0.5v-4.5h-5.9v-6.3H193.5z"/>
	<path class="st1" d="M200.4,33.2V2.1h7.4v31.2H200.4z"/>
	<path class="st1" d="M215.8,33.2V1h0.7l19.4,18.2V2.1h6.9v32.3h-0.6l-19.5-18.2v17H215.8z"/>
	<path class="st1" d="M250.5,33.2V2.1h19.2v6.4h-12v5.6H268v6.4h-10.2v6.2h12.1v6.6H250.5z"/>
</g>
</svg>
